<?xml version="1.0" standalone="no"?>
<!DOCTYPE svg PUBLIC "-//W3C//DTD SVG 20010904//EN"
 "http://www.w3.org/TR/2001/REC-SVG-20010904/DTD/svg10.dtd">
<svg version="1.0" xmlns="http://www.w3.org/2000/svg"
 width="225.000000pt" height="225.000000pt" viewBox="0 0 225.000000 225.000000"
 preserveAspectRatio="xMidYMid meet">

<g transform="translate(0.000000,225.000000) scale(0.100000,-0.100000)"
fill="#000000" stroke="none">
<path d="M1207 1646 c-3 -7 6 -23 21 -35 14 -11 23 -24 19 -27 -4 -4 -15 -1
-24 7 -16 13 -17 12 -4 -4 8 -9 11 -20 8 -23 -3 -4 0 -12 7 -20 18 -18 108
-74 118 -74 5 0 8 26 6 57 l-3 57 -65 38 c-74 42 -76 43 -83 24z m33 -16 c0
-5 -7 -7 -15 -4 -8 4 -12 10 -9 15 6 11 24 2 24 -11z"/>
<path d="M890 1518 l1 -63 118 -66 118 -66 41 24 c40 24 41 25 26 49 -9 13
-13 24 -9 24 4 0 3 6 -4 13 -8 10 -7 17 2 26 7 8 -1 6 -21 -3 -32 -17 -34 -16
-80 10 -26 15 -77 46 -113 70 -37 24 -69 44 -73 44 -3 0 -6 -28 -6 -62z"/>
<path d="M798 1380 l-48 -30 0 -134 0 -134 118 -69 117 -70 5 44 c5 44 16 55
31 31 6 -9 9 -7 9 10 0 12 -6 22 -12 22 -7 0 -48 21 -90 46 l-78 45 0 74 0 75
36 -4 c29 -4 37 -1 41 15 3 11 10 16 17 12 17 -11 37 -12 30 -2 -3 6 5 7 20 3
14 -3 26 -4 26 -1 0 7 -156 97 -167 97 -4 0 -29 -14 -55 -30z"/>
<path d="M1055 1253 c-16 -9 -38 -22 -47 -31 -23 -19 -25 -87 -3 -96 8 -3 15
-13 15 -21 0 -10 5 -13 12 -9 8 5 9 2 4 -11 -5 -15 -4 -16 9 -5 12 10 16 9 21
-6 3 -11 9 -26 12 -34 8 -18 14 87 10 169 l-3 59 -30 -15z"/>
<path d="M990 1104 c0 -8 5 -12 10 -9 6 3 10 10 10 16 0 5 -4 9 -10 9 -5 0
-10 -7 -10 -16z"/>
<path d="M1491 1104 c0 -11 3 -14 6 -6 3 7 2 16 -1 19 -3 4 -6 -2 -5 -13z"/>
<path d="M1040 1005 c0 -16 9 -19 34 -9 20 8 11 24 -15 24 -10 0 -19 -7 -19
-15z"/>
<path d="M1177 753 c-11 -10 -8 -93 3 -93 6 0 10 23 10 50 0 51 -1 55 -13 43z"/>
<path d="M1220 710 c0 -27 5 -50 10 -50 6 0 10 6 10 14 0 9 12 16 27 18 55 6
33 68 -24 68 -21 0 -23 -4 -23 -50z m58 13 c-5 -26 -38 -29 -38 -4 0 15 6 21
21 21 14 0 19 -5 17 -17z"/>
<path d="M1333 753 c-25 -9 -14 -41 18 -52 36 -12 30 -36 -7 -27 -14 4 -24 2
-24 -4 0 -5 15 -10 34 -10 51 0 58 39 9 54 -31 10 -29 26 3 26 14 0 23 4 19
10 -6 10 -31 12 -52 3z"/>
<path d="M1422 715 c3 -50 3 -50 38 -50 35 0 35 0 38 48 2 33 0 47 -7 42 -6
-3 -11 -21 -11 -40 0 -61 -43 -55 -48 6 -2 18 -5 35 -8 38 -3 3 -4 -17 -2 -44z"/>
<path d="M1530 713 c0 -29 5 -53 10 -53 6 0 10 12 10 27 0 26 1 26 15 7 15
-19 15 -19 30 0 14 19 15 19 15 -7 0 -15 5 -27 10 -27 6 0 10 23 10 52 l0 52
-30 -34 c-16 -19 -29 -30 -30 -25 0 6 -9 21 -20 35 l-20 25 0 -52z"/>
</g>
</svg>
